<svg xmlns="http://www.w3.org/2000/svg" width="143" height="32" viewBox="0 0 143 32">
    <g fill="none" fill-rule="evenodd">
        <path d="M0 0h144v32H0z"/>
        <path fill="#28C38A" d="M48 23.195V8.918h3.027v11.777h5.791v2.5H48zm10.938-13.74c0-.97.54-1.455 1.62-1.455 1.081 0 1.622.485 1.622 1.455 0 .462-.135.822-.406 1.08-.27.256-.675.385-1.215.385-1.081 0-1.621-.488-1.621-1.465zm3.105 13.74h-2.979V12.277h2.979v10.918zm13.203 0h-2.978v-6.377c0-.787-.14-1.378-.42-1.772-.28-.394-.726-.59-1.338-.59-.834 0-1.436.277-1.807.834-.371.557-.557 1.48-.557 2.769v5.136h-2.978V12.277h2.275l.4 1.397h.167c.332-.528.79-.926 1.372-1.196.583-.27 1.245-.406 1.987-.406 1.27 0 2.233.344 2.89 1.03.658.687.987 1.679.987 2.974v7.12zm12.568-10.918v1.514l-1.709.44a2.98 2.98 0 0 1 .47 1.64c0 1.172-.41 2.085-1.226 2.74-.817.654-1.952.98-3.404.98l-.537-.029-.44-.048c-.305.234-.458.494-.458.78 0 .43.547.645 1.64.645h1.856c1.198 0 2.11.258 2.74.772.627.514.942 1.27.942 2.266 0 1.276-.533 2.265-1.597 2.968-1.065.703-2.593 1.055-4.585 1.055-1.524 0-2.687-.265-3.491-.796-.804-.53-1.206-1.274-1.206-2.231 0-.658.205-1.208.615-1.65.41-.443 1.012-.76 1.806-.948a1.993 1.993 0 0 1-.8-.64c-.228-.296-.342-.61-.342-.942 0-.417.12-.763.361-1.04s.59-.549 1.045-.816a2.93 2.93 0 0 1-1.362-1.19c-.335-.548-.503-1.192-.503-1.934 0-1.192.387-2.113 1.162-2.764.775-.651 1.882-.977 3.32-.977.306 0 .67.028 1.09.083.42.056.688.096.805.122h3.808zm-8.427 12.461c0 .41.197.733.59.967.394.234.946.352 1.656.352 1.068 0 1.904-.147 2.51-.44.605-.293.908-.693.908-1.201 0-.41-.18-.693-.537-.85-.358-.156-.912-.234-1.66-.234H81.31c-.547 0-1.005.129-1.373.386-.367.257-.551.597-.551 1.02zm1.084-8.886c0 .592.135 1.06.405 1.406.27.345.682.517 1.235.517.56 0 .97-.172 1.23-.517.261-.345.391-.814.391-1.406 0-1.316-.54-1.973-1.62-1.973-1.094 0-1.641.657-1.641 1.973zm16.875 7.343l-.4-1.396h-.157c-.319.508-.771.9-1.357 1.177-.586.276-1.254.415-2.002.415-1.283 0-2.25-.344-2.9-1.03-.652-.688-.977-1.675-.977-2.965v-7.119h2.978v6.377c0 .788.14 1.379.42 1.773.28.394.726.59 1.338.59.833 0 1.436-.278 1.807-.834.37-.557.556-1.48.556-2.769v-5.137h2.979v10.918h-2.285zm12.343 0l-.576-1.484h-.078c-.501.631-1.017 1.07-1.548 1.313-.53.245-1.222.367-2.075.367-1.048 0-1.873-.3-2.475-.899-.603-.599-.904-1.452-.904-2.558 0-1.16.405-2.014 1.216-2.564.81-.55 2.033-.854 3.667-.913l1.895-.059v-.478c0-1.107-.567-1.66-1.7-1.66-.872 0-1.897.263-3.076.79l-.986-2.01c1.256-.658 2.65-.987 4.18-.987 1.464 0 2.587.319 3.369.957.78.638 1.172 1.608 1.172 2.91v7.275h-2.08zm-.878-5.058l-1.153.039c-.866.026-1.51.182-1.933.469-.424.286-.635.722-.635 1.308 0 .84.482 1.26 1.445 1.26.69 0 1.242-.199 1.655-.596.414-.397.62-.924.62-1.582v-.898zm9.003 5.058h-2.978V8h2.978v15.195zm7.647-9.004c-.632 0-1.126.2-1.484.601-.359.4-.564.968-.616 1.704h4.18c-.013-.736-.205-1.304-.576-1.704-.371-.4-.873-.6-1.504-.6zm.42 9.2c-1.758 0-3.132-.485-4.121-1.455-.99-.97-1.485-2.344-1.485-4.122 0-1.829.458-3.243 1.372-4.243.915-1 2.18-1.499 3.794-1.499 1.543 0 2.745.44 3.604 1.319.86.879 1.289 2.093 1.289 3.642v1.446h-7.041c.033.846.283 1.507.752 1.982.469.475 1.126.713 1.973.713a8.19 8.19 0 0 0 1.865-.205 9.333 9.333 0 0 0 1.836-.655v2.305c-.521.26-1.078.454-1.67.581-.593.127-1.315.19-2.168.19zm9.248-5.674c0 1.08.177 1.898.532 2.451.355.553.933.83 1.734.83.794 0 1.365-.275 1.713-.825.349-.55.523-1.369.523-2.456 0-1.08-.176-1.891-.527-2.432-.352-.54-.928-.81-1.729-.81-.794 0-1.367.268-1.719.805-.351.537-.527 1.35-.527 2.437zm7.549 0c0 1.777-.469 3.167-1.407 4.17-.937 1.002-2.242 1.504-3.916 1.504-1.048 0-1.972-.23-2.773-.689a4.581 4.581 0 0 1-1.846-1.977c-.43-.86-.644-1.862-.644-3.008 0-1.784.465-3.17 1.396-4.16.931-.99 2.24-1.485 3.926-1.485 1.048 0 1.973.228 2.774.684.8.456 1.416 1.11 1.845 1.963.43.853.645 1.852.645 2.998zM16 32C7.163 32 0 24.837 0 16S7.163 0 16 0s16 7.163 16 16-7.163 16-16 16zM6.406 17.2c.112 1.279 1.34 2.492 2.731 2.693 1.391.203 2.712 1.524 2.933 2.934.223 1.41 1.451 2.656 2.73 2.768 1.28.11 2.69-1.255 3.136-3.035.445-1.78.627-4.42.404-5.866-.222-1.446-1.588-2.811-3.033-3.033-1.447-.223-4.087-.042-5.867.404-1.78.445-3.145 1.856-3.034 3.135zm5.305-5.74c.95 0 1.85-.57 2.22-1.508l.266-.67a2.387 2.387 0 0 0-1.34-3.1 2.386 2.386 0 0 0-3.1 1.34l-.265.67a2.387 2.387 0 0 0 2.219 3.268zm6.792-.354c.811 0 1.604-.414 2.05-1.16l.598-.996a2.387 2.387 0 0 0-.82-3.275 2.386 2.386 0 0 0-3.276.819l-.597.996a2.386 2.386 0 0 0 2.045 3.616zM22.93 22.69c.294 0 .592-.054.881-.168l.67-.267a2.388 2.388 0 0 0-1.763-4.439l-.669.266a2.389 2.389 0 0 0 .881 4.608zm.356-6.813c.414 0 .834-.107 1.216-.335l.996-.59a2.388 2.388 0 1 0-2.437-4.107l-.996.59a2.388 2.388 0 0 0 1.221 4.442z"/>
    </g>
</svg>
